<svg fill="white" xmlns="http://www.w3.org/2000/svg" data-encore-id="icon" role="img" aria-label="External link" aria-hidden="false" class="e-91000-icon e-91000-baseline" viewBox="0 0 16 16" style="--encore-icon-height: var(--encore-graphic-size-informative-smaller); --encore-icon-width: var(--encore-graphic-size-informative-smaller);"><path d="M1 2.75A.75.75 0 0 1 1.75 2H7v1.5H2.5v11h10.219V9h1.5v6.25a.75.75 0 0 1-.75.75H1.75a.75.75 0 0 1-.75-.75z"></path><path d="M15 1v4.993a.75.75 0 1 1-1.5 0V3.56L8.78 8.28a.75.75 0 0 1-1.06-1.06l4.72-4.72h-2.433a.75.75 0 0 1 0-1.5z"></path></svg>